<?xml version="1.0" encoding="UTF-8"?>
<!DOCTYPE svg PUBLIC "-//W3C//DTD SVG 1.1//EN" "http://www.w3.org/Graphics/SVG/1.1/DTD/svg11.dtd">
<svg xmlns="http://www.w3.org/2000/svg" version="1.1" width="256px" height="256px" style="shape-rendering:geometricPrecision; text-rendering:geometricPrecision; image-rendering:optimizeQuality; fill-rule:evenodd; clip-rule:evenodd" xmlns:xlink="http://www.w3.org/1999/xlink">
<g><path style="opacity:0.996" fill="#ef6034" d="M 124.5,2.5 C 148.132,26.632 171.965,50.632 196,74.5C 196.464,75.0944 196.631,75.7611 196.5,76.5C 187.661,68.5814 177.327,63.5814 165.5,61.5C 146.5,42.1667 127.5,22.8333 108.5,3.5C 113.787,2.65762 119.12,2.32429 124.5,2.5 Z"/></g>
<g><path style="opacity:0.994" fill="#ef642e" d="M 124.5,2.5 C 132.201,2.30894 139.868,2.64227 147.5,3.5C 147.369,4.23891 147.536,4.90558 148,5.5C 182.729,40.0616 217.229,74.7283 251.5,109.5C 252.43,116.777 252.764,124.11 252.5,131.5C 235.193,113.187 217.527,95.8541 199.5,79.5C 198.167,78.8333 197.167,77.8333 196.5,76.5C 196.631,75.7611 196.464,75.0944 196,74.5C 171.965,50.632 148.132,26.632 124.5,2.5 Z"/></g>
<g><path style="opacity:0.99" fill="#f06829" d="M 147.5,3.5 C 152.799,4.09588 157.799,5.42921 162.5,7.5C 190.5,36.1667 218.833,64.5 247.5,92.5C 249.834,97.8175 251.167,103.484 251.5,109.5C 217.229,74.7283 182.729,40.0616 148,5.5C 147.536,4.90558 147.369,4.23891 147.5,3.5 Z"/></g>
<g><path style="opacity:0.995" fill="#ed5a3a" d="M 108.5,3.5 C 127.5,22.8333 146.5,42.1667 165.5,61.5C 156.505,60.2032 147.505,60.2032 138.5,61.5C 120.217,44.885 102.551,27.5517 85.5,9.5C 92.7795,6.42899 100.446,4.42899 108.5,3.5 Z"/></g>
<g><path style="opacity:0.997" fill="#ec5341" d="M 85.5,9.5 C 102.551,27.5517 120.217,44.885 138.5,61.5C 132.84,63.6153 127.173,65.9487 121.5,68.5C 105.588,51.0851 89.0875,34.0851 72,17.5C 71.5357,16.9056 71.369,16.2389 71.5,15.5C 75.8435,12.9346 80.5102,10.9346 85.5,9.5 Z"/></g>
<g><path style="opacity:0.948" fill="#f16d25" d="M 162.5,7.5 C 199.235,18.0592 225.735,40.7259 242,75.5C 244.425,81.0073 246.259,86.6739 247.5,92.5C 218.833,64.5 190.5,36.1667 162.5,7.5 Z"/></g>
<g><path style="opacity:0.995" fill="#eb4e48" d="M 71.5,15.5 C 71.369,16.2389 71.5357,16.9056 72,17.5C 89.0875,34.0851 105.588,51.0851 121.5,68.5C 117.233,71.4268 113.233,74.7602 109.5,78.5C 91.7014,61.2017 74.0348,43.7017 56.5,26C 55.9056,25.5357 55.2389,25.369 54.5,25.5C 59.6649,21.4137 65.3315,18.0804 71.5,15.5 Z"/></g>
<g><path style="opacity:0.996" fill="#ea474e" d="M 54.5,25.5 C 55.2389,25.369 55.9056,25.5357 56.5,26C 74.0348,43.7017 91.7014,61.2017 109.5,78.5C 106.081,82.3314 103.414,86.6647 101.5,91.5C 81.5506,73.218 62.2172,54.218 43.5,34.5C 46.8514,31.1518 50.5181,28.1518 54.5,25.5 Z"/></g>
<g><path style="opacity:0.994" fill="#e94254" d="M 43.5,34.5 C 62.2172,54.218 81.5506,73.218 101.5,91.5C 101.5,92.1667 101.5,92.8333 101.5,93.5C 100.957,93.56 100.624,93.8933 100.5,94.5C 103.155,94.9752 105.155,96.3085 106.5,98.5C 99.7895,98.287 93.1228,98.6204 86.5,99.5C 68.8333,81.1667 50.8333,63.1667 32.5,45.5C 35.8333,41.5 39.5,37.8333 43.5,34.5 Z"/></g>
<g><path style="opacity:1" fill="#e33e5a" d="M 32.5,45.5 C 50.8333,63.1667 68.8333,81.1667 86.5,99.5C 83.3012,100.899 79.9679,101.899 76.5,102.5C 60.1667,85.8333 43.8333,69.1667 27.5,52.5C 28.7859,49.883 30.4525,47.5496 32.5,45.5 Z"/></g>
<g><path style="opacity:0.998" fill="#dd3c5c" d="M 27.5,52.5 C 43.8333,69.1667 60.1667,85.8333 76.5,102.5C 74.8185,104.008 72.8185,105.008 70.5,105.5C 69.7611,105.631 69.0944,105.464 68.5,105C 53.2985,89.6315 37.9652,74.4648 22.5,59.5C 23.4333,56.6298 25.1,54.2964 27.5,52.5 Z"/></g>
<g><path style="opacity:0.994" fill="#d53a61" d="M 22.5,59.5 C 37.9652,74.4648 53.2985,89.6315 68.5,105C 69.0944,105.464 69.7611,105.631 70.5,105.5C 66.5238,108.469 62.5238,111.469 58.5,114.5C 43.8333,100.833 29.1667,87.1667 14.5,73.5C 16.1588,68.1734 18.8255,63.5067 22.5,59.5 Z"/></g>
<g><path style="opacity:1" fill="#fefdfd" d="M 165.5,61.5 C 177.327,63.5814 187.661,68.5814 196.5,76.5C 197.167,77.8333 198.167,78.8333 199.5,79.5C 203.818,85.474 206.484,92.1407 207.5,99.5C 208.412,109.089 206.079,117.756 200.5,125.5C 197.167,128.5 193.833,131.5 190.5,134.5C 189.5,134.833 188.833,135.5 188.5,136.5C 187.833,142.833 187.167,149.167 186.5,155.5C 181.707,151.879 177.04,148.046 172.5,144C 167.873,144.379 163.207,144.879 158.5,145.5C 159.545,131.423 154.879,119.589 144.5,110C 131.688,100.387 117.354,94.8867 101.5,93.5C 101.5,92.8333 101.5,92.1667 101.5,91.5C 103.414,86.6647 106.081,82.3314 109.5,78.5C 113.233,74.7602 117.233,71.4268 121.5,68.5C 127.173,65.9487 132.84,63.6153 138.5,61.5C 147.505,60.2032 156.505,60.2032 165.5,61.5 Z"/></g>
<g><path style="opacity:0.995" fill="#cb3766" d="M 14.5,73.5 C 29.1667,87.1667 43.8333,100.833 58.5,114.5C 56.1153,116.884 54.1153,119.55 52.5,122.5C 38.114,109.115 24.4474,95.1151 11.5,80.5C 11.9348,77.8427 12.9348,75.5093 14.5,73.5 Z"/></g>
<g><path style="opacity:0.995" fill="#ef6034" d="M 252.5,131.5 C 252.663,136.547 252.329,141.547 251.5,146.5C 237.201,132.702 223.035,118.702 209,104.5C 208.802,102.618 208.302,100.952 207.5,99.5C 206.484,92.1407 203.818,85.474 199.5,79.5C 217.527,95.8541 235.193,113.187 252.5,131.5 Z"/></g>
<g><path style="opacity:0.994" fill="#c0336b" d="M 11.5,80.5 C 24.4474,95.1151 38.114,109.115 52.5,122.5C 49.7046,126.759 48.038,131.425 47.5,136.5C 46.8826,136.611 46.3826,136.944 46,137.5C 33,124.5 20,111.5 7,98.5C 6.58309,99.756 5.74975,100.423 4.5,100.5C 6.23265,93.5398 8.56598,86.8731 11.5,80.5 Z"/></g>
<g><path style="opacity:1" fill="#fefcfd" d="M 106.5,98.5 C 123.955,99.6432 138.122,106.977 149,120.5C 154.303,128.38 156.47,137.046 155.5,146.5C 153.824,151.535 151.824,156.535 149.5,161.5C 147.273,163.607 145.273,165.94 143.5,168.5C 140.891,169.443 138.891,171.11 137.5,173.5C 134.669,174.079 132.336,175.412 130.5,177.5C 127.843,177.935 125.509,178.935 123.5,180.5C 120.37,180.7 117.37,181.366 114.5,182.5C 110.846,182.942 107.179,183.276 103.5,183.5C 99.8333,183.5 96.1667,183.5 92.5,183.5C 89.6239,183.073 86.7906,182.406 84,181.5C 82.699,181.639 81.8656,182.305 81.5,183.5C 78.5451,185.122 75.8785,187.122 73.5,189.5C 71.8089,190.864 70.1423,192.197 68.5,193.5C 67.8334,186.988 67.1667,180.321 66.5,173.5C 57.0994,168.025 51.0994,160.025 48.5,149.5C 47.6274,145.232 47.2941,140.898 47.5,136.5C 48.038,131.425 49.7046,126.759 52.5,122.5C 54.1153,119.55 56.1153,116.884 58.5,114.5C 62.5238,111.469 66.5238,108.469 70.5,105.5C 72.8185,105.008 74.8185,104.008 76.5,102.5C 79.9679,101.899 83.3012,100.899 86.5,99.5C 93.1228,98.6204 99.7895,98.287 106.5,98.5 Z"/></g>
<g><path style="opacity:0.995" fill="#b8326f" d="M 47.5,136.5 C 47.2941,140.898 47.6274,145.232 48.5,149.5C 47.7611,149.631 47.0944,149.464 46.5,149C 32.2985,134.631 17.9652,120.465 3.5,106.5C 4.14952,104.565 4.48285,102.565 4.5,100.5C 5.74975,100.423 6.58309,99.756 7,98.5C 20,111.5 33,124.5 46,137.5C 46.3826,136.944 46.8826,136.611 47.5,136.5 Z"/></g>
<g><path style="opacity:0.992" fill="#b23274" d="M 3.5,106.5 C 17.9652,120.465 32.2985,134.631 46.5,149C 47.0944,149.464 47.7611,149.631 48.5,149.5C 51.0994,160.025 57.0994,168.025 66.5,173.5C 67.1667,180.321 67.8334,186.988 68.5,193.5C 68.44,194.043 68.1067,194.376 67.5,194.5C 66.6717,189.868 66.1717,185.202 66,180.5C 44.9653,159.298 23.7986,138.298 2.5,117.5C 2.72442,113.821 3.05775,110.154 3.5,106.5 Z"/></g>
<g><path style="opacity:0.996" fill="#ed5a3b" d="M 207.5,99.5 C 208.302,100.952 208.802,102.618 209,104.5C 223.035,118.702 237.201,132.702 251.5,146.5C 250.545,155.331 248.212,163.664 244.5,171.5C 244.649,170.448 244.483,169.448 244,168.5C 229.632,153.965 215.132,139.631 200.5,125.5C 206.079,117.756 208.412,109.089 207.5,99.5 Z"/></g>
<g><path style="opacity:0.997" fill="#ea4a50" d="M 101.5,93.5 C 117.354,94.8867 131.688,100.387 144.5,110C 154.879,119.589 159.545,131.423 158.5,145.5C 163.207,144.879 167.873,144.379 172.5,144C 177.04,148.046 181.707,151.879 186.5,155.5C 186.5,156.167 186.833,156.5 187.5,156.5C 201.131,170.632 214.965,184.632 229,198.5C 229.464,199.094 229.631,199.761 229.5,200.5C 226.848,204.482 223.848,208.149 220.5,211.5C 198.5,190.167 176.833,168.5 155.5,146.5C 156.47,137.046 154.303,128.38 149,120.5C 138.122,106.977 123.955,99.6432 106.5,98.5C 105.155,96.3085 103.155,94.9752 100.5,94.5C 100.624,93.8933 100.957,93.56 101.5,93.5 Z"/></g>
<g><path style="opacity:0.995" fill="#ec5342" d="M 200.5,125.5 C 215.132,139.631 229.632,153.965 244,168.5C 244.483,169.448 244.649,170.448 244.5,171.5C 243.424,176.061 241.757,180.395 239.5,184.5C 222.448,168.449 206.115,151.782 190.5,134.5C 193.833,131.5 197.167,128.5 200.5,125.5 Z"/></g>
<g><path style="opacity:0.999" fill="#a92c77" d="M 2.5,117.5 C 23.7986,138.298 44.9653,159.298 66,180.5C 66.1717,185.202 66.6717,189.868 67.5,194.5C 68.1067,194.376 68.44,194.043 68.5,193.5C 70.1423,192.197 71.8089,190.864 73.5,189.5C 74.2389,189.369 74.9056,189.536 75.5,190C 96.395,211.062 117.395,231.895 138.5,252.5C 132.833,252.5 127.167,252.5 121.5,252.5C 82.1667,212.5 42.5,172.833 2.5,133.5C 2.5,128.167 2.5,122.833 2.5,117.5 Z"/></g>
<g><path style="opacity:1" fill="#de3e5d" d="M 83.5,128.5 C 95.1667,128.5 106.833,128.5 118.5,128.5C 118.5,129.5 118.5,130.5 118.5,131.5C 106.833,131.5 95.1667,131.5 83.5,131.5C 83.5,130.5 83.5,129.5 83.5,128.5 Z"/></g>
<g><path style="opacity:0.996" fill="#eb4d48" d="M 190.5,134.5 C 206.115,151.782 222.448,168.449 239.5,184.5C 236.653,190.206 233.32,195.539 229.5,200.5C 229.631,199.761 229.464,199.094 229,198.5C 214.965,184.632 201.131,170.632 187.5,156.5C 188.491,150.021 188.824,143.354 188.5,136.5C 188.833,135.5 189.5,134.833 190.5,134.5 Z"/></g>
<g><path style="opacity:1" fill="#d83b60" d="M 83.5,139.5 C 95.1667,139.5 106.833,139.5 118.5,139.5C 118.5,140.5 118.5,141.5 118.5,142.5C 106.833,142.5 95.1667,142.5 83.5,142.5C 83.5,141.5 83.5,140.5 83.5,139.5 Z"/></g>
<g><path style="opacity:0.995" fill="#a12a7b" d="M 2.5,133.5 C 42.5,172.833 82.1667,212.5 121.5,252.5C 115.081,252.558 108.747,251.891 102.5,250.5C 70.5348,218.035 38.3682,185.701 6,153.5C 5.53566,154.094 5.36899,154.761 5.5,155.5C 3.39836,148.45 2.39836,141.117 2.5,133.5 Z"/></g>
<g><path style="opacity:1" fill="#f07d7a" d="M 188.5,136.5 C 188.824,143.354 188.491,150.021 187.5,156.5C 186.833,156.5 186.5,156.167 186.5,155.5C 187.167,149.167 187.833,142.833 188.5,136.5 Z"/></g>
<g><path style="opacity:0.997" fill="#e94254" d="M 155.5,146.5 C 176.833,168.5 198.5,190.167 220.5,211.5C 217.167,215.5 213.5,219.167 209.5,222.5C 189.5,202.167 169.5,181.833 149.5,161.5C 151.824,156.535 153.824,151.535 155.5,146.5 Z"/></g>
<g><path style="opacity:1" fill="#d74d6f" d="M 91.5,150.5 C 98.1667,150.5 104.833,150.5 111.5,150.5C 111.5,151.833 111.5,153.167 111.5,154.5C 104.833,154.5 98.1667,154.5 91.5,154.5C 91.5,153.167 91.5,151.833 91.5,150.5 Z"/></g>
<g><path style="opacity:0.989" fill="#99277f" d="M 102.5,250.5 C 96.561,249.406 90.8943,247.739 85.5,245.5C 60.5,219.833 35.1667,194.5 9.5,169.5C 7.56462,165.105 6.23128,160.438 5.5,155.5C 5.36899,154.761 5.53566,154.094 6,153.5C 38.3682,185.701 70.5348,218.035 102.5,250.5 Z"/></g>
<g><path style="opacity:0.999" fill="#e33e59" d="M 149.5,161.5 C 169.5,181.833 189.5,202.167 209.5,222.5C 207.45,224.547 205.117,226.214 202.5,227.5C 182.5,208.167 162.833,188.5 143.5,168.5C 145.273,165.94 147.273,163.607 149.5,161.5 Z"/></g>
<g><path style="opacity:0.996" fill="#dd3d5d" d="M 143.5,168.5 C 162.833,188.5 182.5,208.167 202.5,227.5C 200.704,229.9 198.37,231.567 195.5,232.5C 176.167,212.833 156.833,193.167 137.5,173.5C 138.891,171.11 140.891,169.443 143.5,168.5 Z"/></g>
<g><path style="opacity:0.995" fill="#d73a5f" d="M 137.5,173.5 C 156.833,193.167 176.167,212.833 195.5,232.5C 193.381,234.4 191.047,236.066 188.5,237.5C 188.631,236.761 188.464,236.094 188,235.5C 168.632,216.299 149.465,196.965 130.5,177.5C 132.336,175.412 134.669,174.079 137.5,173.5 Z"/></g>
<g><path style="opacity:0.997" fill="#d13963" d="M 130.5,177.5 C 149.465,196.965 168.632,216.299 188,235.5C 188.464,236.094 188.631,236.761 188.5,237.5C 186.95,238.441 185.284,239.107 183.5,239.5C 162.884,220.551 142.884,200.885 123.5,180.5C 125.509,178.935 127.843,177.935 130.5,177.5 Z"/></g>
<g><path style="opacity:0.995" fill="#cb3766" d="M 123.5,180.5 C 142.884,200.885 162.884,220.551 183.5,239.5C 180.416,241.537 177.083,243.203 173.5,244.5C 153.702,224.201 133.702,204.035 113.5,184C 114.056,183.617 114.389,183.117 114.5,182.5C 117.37,181.366 120.37,180.7 123.5,180.5 Z"/></g>
<g><path style="opacity:0.998" fill="#b8316f" d="M 92.5,183.5 C 113.632,205.132 134.965,226.632 156.5,248C 157.448,248.483 158.448,248.649 159.5,248.5C 155.671,249.738 151.671,250.738 147.5,251.5C 147.631,250.761 147.464,250.094 147,249.5C 124.965,227.632 103.132,205.632 81.5,183.5C 81.8656,182.305 82.699,181.639 84,181.5C 86.7906,182.406 89.6239,183.073 92.5,183.5 Z"/></g>
<g><path style="opacity:0.995" fill="#b22f72" d="M 81.5,183.5 C 103.132,205.632 124.965,227.632 147,249.5C 147.464,250.094 147.631,250.761 147.5,251.5C 144.518,251.963 141.518,252.296 138.5,252.5C 117.395,231.895 96.395,211.062 75.5,190C 74.9056,189.536 74.2389,189.369 73.5,189.5C 75.8785,187.122 78.5451,185.122 81.5,183.5 Z"/></g>
<g><path style="opacity:0.997" fill="#be336c" d="M 92.5,183.5 C 96.1667,183.5 99.8333,183.5 103.5,183.5C 103.369,184.239 103.536,184.906 104,185.5C 124.702,206.035 145.202,226.701 165.5,247.5C 163.5,247.833 161.5,248.167 159.5,248.5C 158.448,248.649 157.448,248.483 156.5,248C 134.965,226.632 113.632,205.132 92.5,183.5 Z"/></g>
<g><path style="opacity:0.994" fill="#c43569" d="M 114.5,182.5 C 114.389,183.117 114.056,183.617 113.5,184C 133.702,204.035 153.702,224.201 173.5,244.5C 170.828,245.501 168.162,246.501 165.5,247.5C 145.202,226.701 124.702,206.035 104,185.5C 103.536,184.906 103.369,184.239 103.5,183.5C 107.179,183.276 110.846,182.942 114.5,182.5 Z"/></g>
<g><path style="opacity:0.992" fill="#902583" d="M 9.5,169.5 C 35.1667,194.5 60.5,219.833 85.5,245.5C 48.5,231.833 23.1667,206.5 9.5,169.5 Z"/></g>
</svg>
